<svg xmlns="http://www.w3.org/2000/svg" viewBox="0 0 354.32 86.17"><defs><style>.cls-1,.cls-2{fill:#007649;}.cls-1{fill-rule:evenodd;}</style></defs><title>Hanhikivi_Logo-row</title><g id="Layer_4" data-name="Layer 4"><polygon class="cls-1" points="120.23 87 61.68 87 80.42 0 101.49 0 120.23 87"/><polygon class="cls-1" points="184 87 125.45 87 144.19 0 165.26 0 184 87"/><polygon class="cls-1" points="58.55 87 0 87 18.74 0 39.81 0 58.55 87"/><path class="cls-1" d="M117.6,18.27a4.06,4.06,0,0,0,2.52.83,3.84,3.84,0,0,0,2.44-.82,6.72,6.72,0,0,1,7.78,0,3.84,3.84,0,0,0,2.42.82,1.09,1.09,0,0,0,0-.18A9.52,9.52,0,0,0,114,17.06a6.81,6.81,0,0,1,3.65,1.21"/><path class="cls-1" d="M128.4,19.9a3.81,3.81,0,0,0-4.67,0A6,6,0,0,1,120,21.12a6.27,6.27,0,0,1-3.77-1.21,3.91,3.91,0,0,0-2.29-.8,9.09,9.09,0,0,0,17.78,2,6.11,6.11,0,0,1-3.33-1.2"/><path class="cls-2" d="M202.22,45.36h1.48v8.48l-.42.09a5.53,5.53,0,0,0-.75.24l-.08,1h5.21l.08-1-1.3-.25V45.36h1.49l1,2.23h1.12a13.43,13.43,0,0,0-.19-3.71h-9.67a13.42,13.42,0,0,0-.2,3.71h1.12Z"/><path class="cls-2" d="M211.84,49.3v4.58l-.31.09a4.6,4.6,0,0,0-.63.24l-.08,1h4.66l.08-1L214.49,54V46.26h-.73a11.57,11.57,0,0,0-1.58.25,9.44,9.44,0,0,0-1.39.46l-.06.78,1.11.61Z"/><path class="cls-2" d="M213,45.29a1.58,1.58,0,0,0,1.13-.4,1.37,1.37,0,0,0,.42-1.06,1.4,1.4,0,0,0-.42-1.06,1.62,1.62,0,0,0-1.13-.4,1.61,1.61,0,0,0-1.13.4,1.4,1.4,0,0,0-.42,1.06,1.37,1.37,0,0,0,.42,1.06A1.56,1.56,0,0,0,213,45.29Z"/><path class="cls-2" d="M223.67,47.24a3.79,3.79,0,0,0-2.9-1.08,4.38,4.38,0,0,0-3.3,1.28,4.75,4.75,0,0,0-1.22,3.45,4.33,4.33,0,0,0,1.23,3.31A5,5,0,0,0,221,55.35a7.81,7.81,0,0,0,1.84-.2,4.56,4.56,0,0,0,1.44-.58l.11-1.46a6.8,6.8,0,0,1-2.38.47,2.6,2.6,0,0,1-2.82-2.38h5.42a3.7,3.7,0,0,0,0-.42c0-.17,0-.32,0-.43A4.42,4.42,0,0,0,223.67,47.24ZM219.1,50h0c0-1.65.47-2.48,1.41-2.48a1.1,1.1,0,0,1,1.07.73A5,5,0,0,1,221.9,50Z"/><path class="cls-2" d="M233.93,53.85V42.37h-1a11,11,0,0,0-2.87.49l-.07.76,1.28.55v2.2a4.48,4.48,0,0,0-1.37-.21,4.37,4.37,0,0,0-3.34,1.32,5,5,0,0,0-1.25,3.57,4.78,4.78,0,0,0,1,3.16,3.24,3.24,0,0,0,2.63,1.17,4.12,4.12,0,0,0,2.76-1.12l.32,1a17.41,17.41,0,0,0,2.77-.15l.08-1Zm-2.64-.43a2.56,2.56,0,0,1-1.12.29,1.61,1.61,0,0,1-1.45-.79,5.33,5.33,0,0,1,0-4.55,1.63,1.63,0,0,1,1.46-.79,2.78,2.78,0,0,1,1.11.24Z"/><path class="cls-2" d="M243.55,47.4a4.64,4.64,0,0,0-8,3.39,4.3,4.3,0,0,0,4.61,4.59,4.31,4.31,0,0,0,4.63-4.62A4.54,4.54,0,0,0,243.55,47.4ZM240.34,54a1.5,1.5,0,0,1-1.38-.9,5.54,5.54,0,0,1-.49-2.6q0-2.88,1.53-2.88a1.52,1.52,0,0,1,1.39.9,5.68,5.68,0,0,1,.48,2.6Q241.87,54,240.34,54Z"/><path class="cls-2" d="M246.28,52.74c0,1.71.94,2.57,2.81,2.57a4.27,4.27,0,0,0,2.14-.47l.09-1.32a5.63,5.63,0,0,1-1.31.19,1,1,0,0,1-.82-.31,1.5,1.5,0,0,1-.26-1V47.8h2.22l.12-1.43h-2.34V44.18h-1.86l-.68,2.19a6.42,6.42,0,0,0-1.26.41l-.08,1h1.23Z"/><path class="cls-2" d="M252.49,49.3v3.4c0,1.78,1,2.67,2.9,2.67a4.35,4.35,0,0,0,2.84-1l.3.9a17.34,17.34,0,0,0,2.77-.15l.08-1-.93-.27V46.26h-.73a9.57,9.57,0,0,0-1.54.15,6.92,6.92,0,0,0-1.31.34l-.07.8,1,.56v5.22a3.6,3.6,0,0,1-1.56.39,1,1,0,0,1-.85-.32,1.75,1.75,0,0,1-.26-1.07V46.26h-.73a8.44,8.44,0,0,0-2.73.46l-.09.87.91.5Z"/><path class="cls-2" d="M265.59,54a3.33,3.33,0,0,1-1.33-.27l-.88-1.66h-1.21a9,9,0,0,0,0,1.27,7.73,7.73,0,0,0,.16,1.16,5.45,5.45,0,0,0,3.07.82,4.35,4.35,0,0,0,2.79-.82,2.68,2.68,0,0,0,1-2.2,2.43,2.43,0,0,0-.57-1.62,3.68,3.68,0,0,0-1.8-1.07l-1.15-.35c-.74-.23-1.11-.57-1.11-1s.35-.77,1-.77a3.36,3.36,0,0,1,1.14.21l.69,1.29h1.26a9,9,0,0,0-.19-2.22,6.14,6.14,0,0,0-2.72-.61,4,4,0,0,0-2.6.8,2.63,2.63,0,0,0-1,2.14c0,1.32.8,2.23,2.41,2.72l1.14.36c.69.21,1,.53,1,1C266.86,53.74,266.43,54,265.59,54Z"/><path class="cls-2" d="M271,44.91v9l-.24.06a5.73,5.73,0,0,0-.64.26l-.08,1h4.53l.08-1-1-.22V51.24h.63L277,55.17h2.84l.08-1-.5-.12-3.08-4.16,2.43-2.2.13,0a2.37,2.37,0,0,0,.58-.26l.08-1h-3.94l-.08,1,1.15.27-2.33,2.19h-.7V42.37h-1a9.56,9.56,0,0,0-2.76.49l-.07.76,1.17.54Z"/><path class="cls-2" d="M287.33,47.24a3.75,3.75,0,0,0-2.89-1.08,4.38,4.38,0,0,0-3.3,1.28,4.76,4.76,0,0,0-1.23,3.45,4.34,4.34,0,0,0,1.24,3.31,5,5,0,0,0,3.54,1.15,7.81,7.81,0,0,0,1.84-.2,4.66,4.66,0,0,0,1.44-.58l.11-1.46a6.8,6.8,0,0,1-2.38.47,2.61,2.61,0,0,1-2.83-2.38h5.43q0-.15,0-.42c0-.17,0-.32,0-.43A4.43,4.43,0,0,0,287.33,47.24ZM282.76,50h0c0-1.65.48-2.48,1.42-2.48a1.11,1.11,0,0,1,1.07.73,4.83,4.83,0,0,1,.31,1.76Z"/><path class="cls-2" d="M292.53,54a3.33,3.33,0,0,1-1.33-.27l-.89-1.66H289.1a10.75,10.75,0,0,0,0,1.27,9.29,9.29,0,0,0,.16,1.16,5.47,5.47,0,0,0,3.07.82,4.35,4.35,0,0,0,2.79-.82,2.65,2.65,0,0,0,1-2.2,2.42,2.42,0,0,0-.56-1.62,3.71,3.71,0,0,0-1.81-1.07l-1.14-.35c-.74-.23-1.12-.57-1.12-1s.35-.77,1.05-.77a3.42,3.42,0,0,1,1.15.21l.69,1.29h1.25a9,9,0,0,0-.18-2.22,6.21,6.21,0,0,0-2.73-.61,4,4,0,0,0-2.59.8,2.63,2.63,0,0,0-1,2.14c0,1.32.8,2.23,2.4,2.72l1.14.36c.7.21,1,.53,1,1Q293.79,54,292.53,54Z"/><path class="cls-2" d="M300.59,54V51.24h.62l2.72,3.93h2.84l.08-1-.51-.12-3.08-4.16,2.44-2.2.13,0a2.3,2.3,0,0,0,.57-.26l.08-1h-3.93l-.08,1,1.15.27-2.34,2.19h-.69V42.37h-1a9.56,9.56,0,0,0-2.76.49l-.07.76,1.16.54v9.73l-.23.06a5.87,5.87,0,0,0-.65.26l-.08,1h4.53l.08-1Z"/><path class="cls-2" d="M307.79,49.3v3.4q0,2.67,2.91,2.67a4.35,4.35,0,0,0,2.84-1l.3.9a17.34,17.34,0,0,0,2.77-.15l.08-1-.93-.27V46.26H315a9.46,9.46,0,0,0-1.54.15,7,7,0,0,0-1.32.34l-.06.8,1,.56v5.22a3.6,3.6,0,0,1-1.56.39,1,1,0,0,1-.85-.32,1.75,1.75,0,0,1-.26-1.07V46.26h-.73a8.55,8.55,0,0,0-2.74.46l-.08.87.9.5Z"/><path class="cls-2" d="M320.9,54a3.33,3.33,0,0,1-1.33-.27l-.88-1.66h-1.21a9,9,0,0,0,0,1.27,7.73,7.73,0,0,0,.16,1.16,5.45,5.45,0,0,0,3.07.82,4.3,4.3,0,0,0,2.78-.82,2.66,2.66,0,0,0,1-2.2,2.43,2.43,0,0,0-.57-1.62,3.67,3.67,0,0,0-1.81-1.07L321,49.29c-.74-.23-1.11-.57-1.11-1s.34-.77,1-.77a3.36,3.36,0,0,1,1.14.21l.69,1.29h1.26a9,9,0,0,0-.19-2.22,6.14,6.14,0,0,0-2.72-.61,4,4,0,0,0-2.6.8,2.63,2.63,0,0,0-1,2.14c0,1.32.8,2.23,2.41,2.72l1.14.36c.69.21,1,.53,1,1Q322.16,54,320.9,54Z"/><path class="cls-2" d="M201.4,61.46v7.88a6.35,6.35,0,0,0-1,.33l-.08,1h4.84l.08-1-1.11-.25V65.71h4.06v3.63a6,6,0,0,0-1,.33l-.09,1H212l.08-1-1.12-.25V60.71a6.5,6.5,0,0,0,1-.33l.08-1h-4.85l-.08,1,1.12.24v3.6h-4.06V60.71a6.73,6.73,0,0,0,1-.33l.08-1h-4.85l-.08,1,1.12.24Z"/><path class="cls-2" d="M220.31,69.35v-.18c0-.23,0-.57,0-1s0-.94,0-1.46,0-1,0-1.46,0-.78,0-1c0-1.71-1-2.56-3.08-2.56a7.65,7.65,0,0,0-3.77.95,10.24,10.24,0,0,0-.13,2.13h1.29l.83-1.55a2.58,2.58,0,0,1,.82-.15q1.41,0,1.41,1.62V65l-1.41.29c-2.34.49-3.51,1.51-3.51,3.08a2.35,2.35,0,0,0,.7,1.79,2.68,2.68,0,0,0,1.9.66,3.82,3.82,0,0,0,2.64-1.07l.32,1a17.26,17.26,0,0,0,2.77-.15l.08-1Zm-2.58-1.84c0,.47,0,.93,0,1.39a2.45,2.45,0,0,1-1.09.32c-.73,0-1.09-.46-1.09-1.4a1.51,1.51,0,0,1,.35-1.08,1.79,1.79,0,0,1,1.11-.45l.76-.09C217.75,66.62,217.74,67.05,217.73,67.51Z"/><path class="cls-2" d="M222.06,62.47l-.07.78,1.12.61v5.53l-.23.06a5.87,5.87,0,0,0-.65.26l-.08,1h4.62l.08-1-1.09-.24V63.73a3.06,3.06,0,0,1,1.39-.39q1.35,0,1.35,1.56v4.49l-.22.06a4.19,4.19,0,0,0-.55.22l-.08,1h4.42l.08-1-1-.24V64.2a2.46,2.46,0,0,0-.69-1.87,2.84,2.84,0,0,0-2-.66,4.81,4.81,0,0,0-2.07.46,4.47,4.47,0,0,0-1,.65l-.32-1a11.57,11.57,0,0,0-1.58.25A9.06,9.06,0,0,0,222.06,62.47Z"/><path class="cls-2" d="M233.83,68.6v.79l-.23.06a5.87,5.87,0,0,0-.65.26l-.08,1h4.62l.08-1-1.09-.24V63.74a3,3,0,0,1,1.4-.4c.91,0,1.36.52,1.36,1.56v4.49l-.22.06a4.84,4.84,0,0,0-.55.22l-.08,1h4.42l.08-1-1-.24V64.2a2.43,2.43,0,0,0-.7-1.87,2.83,2.83,0,0,0-2-.66,4.38,4.38,0,0,0-2.69.85V57.87h-1a9.56,9.56,0,0,0-2.76.49l-.07.76,1.16.54V68.6Z"/><path class="cls-2" d="M247,60.39a1.34,1.34,0,0,0,.43-1.06,1.37,1.37,0,0,0-.43-1.06,1.78,1.78,0,0,0-2.25,0,1.37,1.37,0,0,0-.43,1.06,1.34,1.34,0,0,0,.43,1.06,1.78,1.78,0,0,0,2.25,0Z"/><path class="cls-2" d="M244.73,68.6v.78l-.32.09a5,5,0,0,0-.62.24l-.08,1h4.66l.08-1-1.07-.24V61.76h-.73a11.57,11.57,0,0,0-1.58.25,9.06,9.06,0,0,0-1.39.46l-.06.78,1.11.61V68.6Z"/><path class="cls-2" d="M259.05,69.65l-.51-.12-3.08-4.16,2.43-2.2.14,0a2.48,2.48,0,0,0,.57-.26l.08-1h-3.93l-.08,1,1.14.27-2.33,2.19h-.7V57.87h-1a9.69,9.69,0,0,0-2.76.49l-.07.76,1.17.54v9.73l-.24.06a5.73,5.73,0,0,0-.64.26l-.08,1h4.53l.08-1-1-.22V66.74h.63l2.72,3.93H259Z"/><path class="cls-2" d="M260.55,68.6v.78l-.32.09a4.6,4.6,0,0,0-.63.24l-.08,1h4.67l.08-1-1.07-.24V61.76h-.73a11.57,11.57,0,0,0-1.58.25,8.71,8.71,0,0,0-1.39.46l-.07.78,1.12.61V68.6Z"/><path class="cls-2" d="M260.15,59.33a1.37,1.37,0,0,0,.42,1.06,1.8,1.8,0,0,0,2.26,0,1.37,1.37,0,0,0,.42-1.06,1.4,1.4,0,0,0-.42-1.06,1.8,1.8,0,0,0-2.26,0A1.4,1.4,0,0,0,260.15,59.33Z"/><path class="cls-2" d="M269,62.89l.08-1h-4.47l-.08,1,.72.16L268,70.74c.4,0,.86,0,1.37,0a12.28,12.28,0,0,0,1.25-.08l2.74-7.54h0a2.64,2.64,0,0,0,.59-.26l.07-1h-3.33l-.08,1,1,.24-1.81,5.47-1.76-5.4.33-.09A5.24,5.24,0,0,0,269,62.89Z"/><path class="cls-2" d="M279.34,69.69l-1.07-.24V61.76h-.73A11.57,11.57,0,0,0,276,62a8.92,8.92,0,0,0-1.38.46l-.07.78,1.11.61v5.52l-.31.09a4.6,4.6,0,0,0-.63.24l-.08,1h4.66Z"/><path class="cls-2" d="M277.91,60.39a1.37,1.37,0,0,0,.42-1.06,1.4,1.4,0,0,0-.42-1.06,1.62,1.62,0,0,0-1.13-.4,1.61,1.61,0,0,0-1.13.4,1.4,1.4,0,0,0-.42,1.06,1.37,1.37,0,0,0,.42,1.06,1.56,1.56,0,0,0,1.13.4A1.58,1.58,0,0,0,277.91,60.39Z"/><path class="cls-2" d="M204.16,84.1V76.21a6.35,6.35,0,0,0,1-.33l.08-1h-4.85l-.08,1,1.12.24v8.69a6.73,6.73,0,0,0-1,.33l-.08,1h4.85l.08-1-1.12-.25Z"/><path class="cls-2" d="M215.27,84.1V79.7a2.47,2.47,0,0,0-.7-1.87,2.82,2.82,0,0,0-2-.66,4.81,4.81,0,0,0-2.07.46,4.47,4.47,0,0,0-1,.65l-.32-1a11.82,11.82,0,0,0-1.58.25,8.92,8.92,0,0,0-1.38.46l-.07.78,1.12.61v5.53L207,85a5.73,5.73,0,0,0-.64.26l-.08,1h4.62l.08-1-1.1-.24V79.23a3.09,3.09,0,0,1,1.39-.39q1.35,0,1.35,1.56v4.49l-.22.06a4.65,4.65,0,0,0-.54.22l-.08,1h4.41l.08-1-1-.24Z"/><path class="cls-2" d="M220.66,76.8a2.19,2.19,0,0,1,.3-1.32,1.27,1.27,0,0,1,1-.37,5.8,5.8,0,0,1,1.28.16l.16-1.92a3.1,3.1,0,0,0-1.14-.18,4,4,0,0,0-2.19.6,4.13,4.13,0,0,0-1.5,1.65,4.92,4.92,0,0,0-.53,2,6.53,6.53,0,0,0-1.18.39l-.08,1h1.24v6.09l-.23.06a5.87,5.87,0,0,0-.65.26l-.08,1h5.18l.08-1L220.71,85V78.8h2.11l.11-1.43h-2.27Z"/><path class="cls-2" d="M231.29,78.4a4.64,4.64,0,0,0-8,3.39,4.3,4.3,0,0,0,4.61,4.59,4.31,4.31,0,0,0,4.63-4.62A4.54,4.54,0,0,0,231.29,78.4ZM228.08,85a1.5,1.5,0,0,1-1.38-.9,5.54,5.54,0,0,1-.49-2.6q0-2.88,1.53-2.88a1.52,1.52,0,0,1,1.39.9,5.68,5.68,0,0,1,.48,2.6Q229.61,85,228.08,85Z"/><path class="cls-2" d="M239.17,77.25a2.5,2.5,0,0,0-1.78.69,3.93,3.93,0,0,0-.64.8l-.46-1.48a11.82,11.82,0,0,0-1.58.25,8.92,8.92,0,0,0-1.38.46l-.07.78,1.12.61v5.53l-.24.06a5.73,5.73,0,0,0-.64.26l-.08,1h5.07l.08-1L237,85V79.81c.09-.07.17-.15.25-.2a2.24,2.24,0,0,1,1.18-.32l.49,0,.59.08.17-2.08-.24,0Z"/><path class="cls-2" d="M254.62,84.1V79.7a2.43,2.43,0,0,0-.7-1.87,2.75,2.75,0,0,0-2-.66,4.46,4.46,0,0,0-3,1.07,2.2,2.2,0,0,0-.33-.41,2.74,2.74,0,0,0-2-.66,4.52,4.52,0,0,0-3,1.11l-.32-1a11.82,11.82,0,0,0-1.58.25,8.92,8.92,0,0,0-1.38.46l-.07.78,1.12.61v5.53l-.24.06a5.73,5.73,0,0,0-.64.26l-.08,1H245l.08-1L244,85V79.23a3,3,0,0,1,1.35-.39c.87,0,1.3.52,1.3,1.56v4.49l-.22.06a4.84,4.84,0,0,0-.55.22l-.08,1h4.37l.08-1-1-.23V79.7a3.29,3.29,0,0,0,0-.45,3,3,0,0,1,1.39-.41c.88,0,1.31.52,1.31,1.56v4.49l-.21.06a4.19,4.19,0,0,0-.55.22l-.08,1h4.41l.08-1-1-.24Z"/><path class="cls-2" d="M263.74,84.85v-.18c0-.23,0-.57,0-1s0-.94,0-1.46,0-1,0-1.46,0-.78,0-1c0-1.71-1-2.56-3.08-2.56a7.61,7.61,0,0,0-3.76,1,10.21,10.21,0,0,0-.14,2.13h1.29L259,78.7a2.63,2.63,0,0,1,.82-.15c1,0,1.42.54,1.42,1.62v.35l-1.42.29c-2.34.49-3.51,1.51-3.51,3.08a2.36,2.36,0,0,0,.71,1.79,2.65,2.65,0,0,0,1.89.66,3.84,3.84,0,0,0,2.65-1.07l.32,1a17.41,17.41,0,0,0,2.77-.15l.08-1ZM261.17,83c0,.47,0,.93,0,1.39a2.49,2.49,0,0,1-1.09.32c-.73,0-1.1-.46-1.1-1.4a1.51,1.51,0,0,1,.35-1.08,1.79,1.79,0,0,1,1.11-.45l.76-.09C261.18,82.12,261.18,82.55,261.17,83Z"/><path class="cls-2" d="M269.09,84.4a1.56,1.56,0,0,1-.25-1V78.8h2.22l.12-1.43h-2.34V75.18H267l-.69,2.19a6.54,6.54,0,0,0-1.25.41l-.08,1h1.23v4.94c0,1.71.94,2.57,2.81,2.57a4.27,4.27,0,0,0,2.14-.47l.09-1.32a5.7,5.7,0,0,1-1.31.19A1,1,0,0,1,269.09,84.4Z"/><path class="cls-2" d="M274.11,76.29a1.56,1.56,0,0,0,1.13-.4,1.37,1.37,0,0,0,.42-1.06,1.4,1.4,0,0,0-.42-1.06,1.8,1.8,0,0,0-2.26,0,1.4,1.4,0,0,0-.42,1.06,1.37,1.37,0,0,0,.42,1.06A1.56,1.56,0,0,0,274.11,76.29Z"/><path class="cls-2" d="M275.6,84.1V77.26h-.73a11.57,11.57,0,0,0-1.58.25,8.92,8.92,0,0,0-1.38.46l-.07.78,1.12.61v5.52l-.32.09a4.6,4.6,0,0,0-.63.24l-.08,1h4.66l.08-1L275.6,85Z"/><path class="cls-2" d="M285.35,78.4a4.64,4.64,0,0,0-8,3.39,4.51,4.51,0,0,0,1.25,3.34,5.17,5.17,0,0,0,6.74,0,5.17,5.17,0,0,0,0-6.73ZM282.15,85a1.5,1.5,0,0,1-1.39-.9,5.68,5.68,0,0,1-.48-2.6c0-1.92.5-2.88,1.52-2.88a1.51,1.51,0,0,1,1.39.9,5.68,5.68,0,0,1,.48,2.6C283.67,84,283.16,85,282.15,85Z"/><path class="cls-2" d="M296.47,84.1V79.7a2.43,2.43,0,0,0-.7-1.87,2.81,2.81,0,0,0-2-.66,4.81,4.81,0,0,0-2.07.46,4.7,4.7,0,0,0-1,.65l-.31-1a11.57,11.57,0,0,0-1.58.25,8.71,8.71,0,0,0-1.39.46l-.07.78,1.12.61v5.53l-.23.06a5.18,5.18,0,0,0-.65.26l-.08,1h4.62l.08-1L291.09,85V79.23a3.06,3.06,0,0,1,1.39-.39c.89,0,1.34.52,1.34,1.56v4.49l-.21.06a4.19,4.19,0,0,0-.55.22l-.08,1h4.41l.08-1-1-.24Z"/><path class="cls-2" d="M309.11,84.83a5.69,5.69,0,0,1-1,.1q-3.43,0-3.43-4.58c0-2.82,1-4.23,2.93-4.23a5.76,5.76,0,0,1,1.66.26l1,2.12h1.18a14.27,14.27,0,0,0-.14-3,5.32,5.32,0,0,0-1.55-.56,9.12,9.12,0,0,0-2-.2,6.87,6.87,0,0,0-3.3.74,5.35,5.35,0,0,0-2.16,2.11,6.51,6.51,0,0,0-.77,3.23,5.26,5.26,0,0,0,1.64,4.15,6.94,6.94,0,0,0,4.7,1.45,8.24,8.24,0,0,0,1.94-.22,4.94,4.94,0,0,0,1.52-.56,12.89,12.89,0,0,0,.39-3.22h-1.22Z"/><path class="cls-2" d="M319.82,78.24a3.78,3.78,0,0,0-2.89-1.08,4.38,4.38,0,0,0-3.31,1.28,4.8,4.8,0,0,0-1.22,3.45,4.3,4.3,0,0,0,1.24,3.31,5,5,0,0,0,3.54,1.15,7.72,7.72,0,0,0,1.83-.2,4.56,4.56,0,0,0,1.44-.58l.11-1.46a6.75,6.75,0,0,1-2.38.47,2.6,2.6,0,0,1-2.82-2.38h5.42a3.32,3.32,0,0,0,0-.42c0-.17,0-.32,0-.43A4.43,4.43,0,0,0,319.82,78.24ZM315.25,81h0c0-1.65.47-2.48,1.41-2.48a1.11,1.11,0,0,1,1.08.73,5.3,5.3,0,0,1,.31,1.76Z"/><path class="cls-2" d="M330.7,84.1V79.7a2.46,2.46,0,0,0-.69-1.87,2.84,2.84,0,0,0-2-.66,4.78,4.78,0,0,0-2.07.46,4.47,4.47,0,0,0-1,.65l-.32-1a11.57,11.57,0,0,0-1.58.25,9.06,9.06,0,0,0-1.39.46l-.07.78,1.12.61v5.53l-.23.06a5.87,5.87,0,0,0-.65.26l-.08,1h4.62l.08-1L325.32,85V79.23a3.06,3.06,0,0,1,1.39-.39q1.35,0,1.35,1.56v4.49l-.22.06a4.19,4.19,0,0,0-.55.22l-.08,1h4.42l.08-1-1-.24Z"/><path class="cls-2" d="M336.05,84.4a1.56,1.56,0,0,1-.25-1V78.8H338l.12-1.43H335.8V75.18h-1.86l-.69,2.19a6.54,6.54,0,0,0-1.25.41l-.08,1h1.23v4.94c0,1.71.94,2.57,2.81,2.57a4.27,4.27,0,0,0,2.14-.47l.09-1.32a5.7,5.7,0,0,1-1.31.19A1,1,0,0,1,336.05,84.4Z"/><path class="cls-2" d="M345.94,78.24a3.76,3.76,0,0,0-2.89-1.08,4.38,4.38,0,0,0-3.3,1.28,4.76,4.76,0,0,0-1.23,3.45,4.3,4.3,0,0,0,1.24,3.31,5,5,0,0,0,3.54,1.15,7.81,7.81,0,0,0,1.84-.2,4.66,4.66,0,0,0,1.44-.58l.11-1.46a6.8,6.8,0,0,1-2.39.47,2.61,2.61,0,0,1-2.82-2.38h5.43q0-.15,0-.42c0-.17,0-.32,0-.43A4.43,4.43,0,0,0,345.94,78.24ZM341.37,81h0c0-1.65.47-2.48,1.42-2.48a1.11,1.11,0,0,1,1.07.73,4.83,4.83,0,0,1,.31,1.76Z"/><path class="cls-2" d="M353.88,77.27l-.29,0a2.5,2.5,0,0,0-1.78.69,3.93,3.93,0,0,0-.64.8l-.46-1.48a11.82,11.82,0,0,0-1.58.25,8.92,8.92,0,0,0-1.38.46l-.07.78,1.12.61v5.53l-.24.06a5.73,5.73,0,0,0-.64.26l-.08,1h5.07l.08-1L351.44,85V79.81c.09-.07.17-.15.25-.2a2.24,2.24,0,0,1,1.18-.32l.49,0,.59.08.17-2.08Z"/></g></svg>